<mxfile host="app.diagrams.net" modified="2022-04-22T15:29:16.936Z" agent="5.0 (Windows NT 10.0; Win64; x64) AppleWebKit/537.36 (KHTML, like Gecko) Chrome/100.0.4896.127 Safari/537.36" etag="L2sdnNtMH3f0dRrPZdwK" version="17.4.6" type="github">
  <diagram id="4s1E6bxD-M0YrJTZDbid" name="Page-1">
    <mxGraphModel dx="687" dy="739" grid="1" gridSize="10" guides="1" tooltips="1" connect="1" arrows="1" fold="1" page="1" pageScale="1" pageWidth="850" pageHeight="1100" math="1" shadow="0">
      <root>
        <mxCell id="0" />
        <mxCell id="1" parent="0" />
        <mxCell id="Ljy8gNB9yvxSD_bigv_t-1" value="" style="endArrow=none;html=1;rounded=0;strokeWidth=2;strokeColor=#069968;" edge="1" parent="1">
          <mxGeometry width="50" height="50" relative="1" as="geometry">
            <mxPoint x="320" y="460" as="sourcePoint" />
            <mxPoint x="320" y="120" as="targetPoint" />
          </mxGeometry>
        </mxCell>
        <mxCell id="Ljy8gNB9yvxSD_bigv_t-2" value="" style="endArrow=none;html=1;rounded=0;strokeWidth=2;strokeColor=#069968;" edge="1" parent="1">
          <mxGeometry width="50" height="50" relative="1" as="geometry">
            <mxPoint x="380" y="460" as="sourcePoint" />
            <mxPoint x="380" y="120" as="targetPoint" />
          </mxGeometry>
        </mxCell>
        <mxCell id="Ljy8gNB9yvxSD_bigv_t-3" value="" style="endArrow=none;html=1;rounded=0;strokeWidth=2;strokeColor=#069968;dashed=1;startArrow=none;" edge="1" parent="1" source="Ljy8gNB9yvxSD_bigv_t-10">
          <mxGeometry width="50" height="50" relative="1" as="geometry">
            <mxPoint x="350" y="460" as="sourcePoint" />
            <mxPoint x="350" y="120" as="targetPoint" />
          </mxGeometry>
        </mxCell>
        <mxCell id="Ljy8gNB9yvxSD_bigv_t-4" value="" style="shape=waypoint;sketch=0;fillStyle=solid;size=6;pointerEvents=1;points=[];fillColor=none;resizable=0;rotatable=0;perimeter=centerPerimeter;snapToPoint=1;strokeColor=#069968;strokeWidth=2;" vertex="1" parent="1">
          <mxGeometry x="330" y="330" width="40" height="40" as="geometry" />
        </mxCell>
        <mxCell id="Ljy8gNB9yvxSD_bigv_t-5" value="" style="endArrow=none;html=1;rounded=0;strokeWidth=2;strokeColor=#069968;dashed=1;" edge="1" parent="1" target="Ljy8gNB9yvxSD_bigv_t-4">
          <mxGeometry width="50" height="50" relative="1" as="geometry">
            <mxPoint x="350" y="460" as="sourcePoint" />
            <mxPoint x="350" y="120" as="targetPoint" />
          </mxGeometry>
        </mxCell>
        <mxCell id="Ljy8gNB9yvxSD_bigv_t-10" value="" style="verticalLabelPosition=bottom;verticalAlign=top;html=1;shape=mxgraph.basic.cone2;dx=0.5;dy=0.9;strokeColor=#069968;strokeWidth=2;fillColor=none;rotation=-180;" vertex="1" parent="1">
          <mxGeometry x="320" y="290" width="60" height="60" as="geometry" />
        </mxCell>
        <mxCell id="Ljy8gNB9yvxSD_bigv_t-11" value="" style="endArrow=none;html=1;rounded=0;strokeWidth=2;strokeColor=#069968;dashed=1;startArrow=none;" edge="1" parent="1" source="Ljy8gNB9yvxSD_bigv_t-4" target="Ljy8gNB9yvxSD_bigv_t-10">
          <mxGeometry width="50" height="50" relative="1" as="geometry">
            <mxPoint x="350" y="350" as="sourcePoint" />
            <mxPoint x="350" y="120" as="targetPoint" />
          </mxGeometry>
        </mxCell>
        <mxCell id="Ljy8gNB9yvxSD_bigv_t-12" value="" style="endArrow=none;html=1;rounded=0;strokeColor=#069968;strokeWidth=2;entryX=0;entryY=0;entryDx=0;entryDy=54;entryPerimeter=0;exitX=0;exitY=0;exitDx=60;exitDy=54;exitPerimeter=0;" edge="1" parent="1" source="Ljy8gNB9yvxSD_bigv_t-10" target="Ljy8gNB9yvxSD_bigv_t-10">
          <mxGeometry width="50" height="50" relative="1" as="geometry">
            <mxPoint x="290" y="360" as="sourcePoint" />
            <mxPoint x="340" y="310" as="targetPoint" />
            <Array as="points">
              <mxPoint x="350" y="310" />
            </Array>
          </mxGeometry>
        </mxCell>
        <mxCell id="Ljy8gNB9yvxSD_bigv_t-13" value="&lt;font style=&quot;font-size: 30px&quot; color=&quot;#069968&quot;&gt;TRUNK&lt;/font&gt;" style="text;html=1;align=center;verticalAlign=middle;resizable=0;points=[];autosize=1;strokeColor=none;fillColor=none;" vertex="1" parent="1">
          <mxGeometry x="200" y="270" width="120" height="30" as="geometry" />
        </mxCell>
        <mxCell id="Ljy8gNB9yvxSD_bigv_t-14" value="" style="endArrow=none;html=1;rounded=0;fontSize=30;fontColor=#069968;strokeColor=#069968;strokeWidth=2;" edge="1" parent="1">
          <mxGeometry width="50" height="50" relative="1" as="geometry">
            <mxPoint x="380" y="320" as="sourcePoint" />
            <mxPoint x="520" y="200" as="targetPoint" />
          </mxGeometry>
        </mxCell>
        <mxCell id="Ljy8gNB9yvxSD_bigv_t-15" value="" style="endArrow=none;html=1;rounded=0;fontSize=30;fontColor=#069968;strokeColor=#069968;strokeWidth=2;" edge="1" parent="1">
          <mxGeometry width="50" height="50" relative="1" as="geometry">
            <mxPoint x="380" y="340" as="sourcePoint" />
            <mxPoint x="620" y="130" as="targetPoint" />
          </mxGeometry>
        </mxCell>
        <mxCell id="Ljy8gNB9yvxSD_bigv_t-16" value="" style="endArrow=none;html=1;rounded=0;fontSize=30;fontColor=#069968;strokeColor=#069968;strokeWidth=2;" edge="1" parent="1">
          <mxGeometry width="50" height="50" relative="1" as="geometry">
            <mxPoint x="520" y="200" as="sourcePoint" />
            <mxPoint x="520" y="100" as="targetPoint" />
          </mxGeometry>
        </mxCell>
        <mxCell id="Ljy8gNB9yvxSD_bigv_t-17" value="" style="endArrow=none;html=1;rounded=0;fontSize=30;fontColor=#069968;strokeColor=#069968;strokeWidth=2;" edge="1" parent="1">
          <mxGeometry width="50" height="50" relative="1" as="geometry">
            <mxPoint x="530" y="190" as="sourcePoint" />
            <mxPoint x="530" y="100" as="targetPoint" />
          </mxGeometry>
        </mxCell>
        <mxCell id="Ljy8gNB9yvxSD_bigv_t-18" value="" style="endArrow=none;html=1;rounded=0;fontSize=30;fontColor=#069968;strokeColor=#069968;strokeWidth=2;" edge="1" parent="1">
          <mxGeometry width="50" height="50" relative="1" as="geometry">
            <mxPoint x="530" y="190" as="sourcePoint" />
            <mxPoint x="610" y="120" as="targetPoint" />
          </mxGeometry>
        </mxCell>
        <mxCell id="Ljy8gNB9yvxSD_bigv_t-19" value="" style="endArrow=none;html=1;rounded=0;fontSize=30;fontColor=#069968;strokeColor=#069968;strokeWidth=2;dashed=1;" edge="1" parent="1">
          <mxGeometry width="50" height="50" relative="1" as="geometry">
            <mxPoint x="390" y="340" as="sourcePoint" />
            <mxPoint x="530" y="220" as="targetPoint" />
          </mxGeometry>
        </mxCell>
        <mxCell id="Ljy8gNB9yvxSD_bigv_t-20" value="" style="endArrow=none;html=1;rounded=0;dashed=1;fontSize=30;fontColor=#069968;strokeColor=#069968;strokeWidth=2;" edge="1" parent="1">
          <mxGeometry width="50" height="50" relative="1" as="geometry">
            <mxPoint x="540" y="180" as="sourcePoint" />
            <mxPoint x="540" y="100" as="targetPoint" />
          </mxGeometry>
        </mxCell>
        <mxCell id="Ljy8gNB9yvxSD_bigv_t-21" value="" style="endArrow=none;html=1;rounded=0;dashed=1;fontSize=30;fontColor=#069968;strokeColor=#069968;strokeWidth=2;" edge="1" parent="1">
          <mxGeometry width="50" height="50" relative="1" as="geometry">
            <mxPoint x="540" y="100" as="sourcePoint" />
            <mxPoint x="600" y="100" as="targetPoint" />
          </mxGeometry>
        </mxCell>
        <mxCell id="Ljy8gNB9yvxSD_bigv_t-22" value="&lt;font style=&quot;font-size: 20px&quot;&gt;2nd BRANCH&lt;/font&gt;" style="text;html=1;align=center;verticalAlign=middle;resizable=0;points=[];autosize=1;strokeColor=none;fillColor=none;fontSize=30;fontColor=#069968;" vertex="1" parent="1">
          <mxGeometry x="530" y="60" width="140" height="40" as="geometry" />
        </mxCell>
        <mxCell id="Ljy8gNB9yvxSD_bigv_t-23" value="&lt;font style=&quot;font-size: 20px&quot;&gt;1st BRANCH&lt;/font&gt;" style="text;html=1;align=center;verticalAlign=middle;resizable=0;points=[];autosize=1;strokeColor=none;fillColor=none;fontSize=30;fontColor=#069968;rotation=-40;" vertex="1" parent="1">
          <mxGeometry x="370" y="220" width="130" height="40" as="geometry" />
        </mxCell>
        <mxCell id="Ljy8gNB9yvxSD_bigv_t-24" value="$$d_1$$" style="text;html=1;align=center;verticalAlign=middle;resizable=0;points=[];autosize=1;strokeColor=none;fillColor=none;fontSize=20;fontColor=#069968;" vertex="1" parent="1">
          <mxGeometry x="440" y="270" width="90" height="30" as="geometry" />
        </mxCell>
        <mxCell id="Ljy8gNB9yvxSD_bigv_t-25" value="$$d_2$$" style="text;html=1;align=center;verticalAlign=middle;resizable=0;points=[];autosize=1;strokeColor=none;fillColor=none;fontSize=20;fontColor=#069968;" vertex="1" parent="1">
          <mxGeometry x="510" y="110" width="90" height="30" as="geometry" />
        </mxCell>
        <mxCell id="Ljy8gNB9yvxSD_bigv_t-26" value="$$(\psi, \frac{\delta \psi}{\delta gen})$$" style="text;html=1;align=center;verticalAlign=middle;resizable=0;points=[];autosize=1;strokeColor=none;fillColor=none;fontSize=20;fontColor=#069968;" vertex="1" parent="1">
          <mxGeometry x="270" y="410" width="350" height="30" as="geometry" />
        </mxCell>
        <mxCell id="Ljy8gNB9yvxSD_bigv_t-27" value="" style="endArrow=none;dashed=1;html=1;rounded=0;fontSize=20;fontColor=#069968;strokeColor=#069968;strokeWidth=2;" edge="1" parent="1">
          <mxGeometry width="50" height="50" relative="1" as="geometry">
            <mxPoint x="380" y="390" as="sourcePoint" />
            <mxPoint x="520" y="390" as="targetPoint" />
          </mxGeometry>
        </mxCell>
      </root>
    </mxGraphModel>
  </diagram>
</mxfile>
